# xmcd CD database file
#
# Track frame offsets:
#	150
#	12628
#	23233
#	34435
#	46028
#	57880
#	68703
#	80723
#	92508
#	105085
#	118090
#	131525
#	145355
#	157640
#	171128
#	184473
#	194115
#
# Disc length: 2753 seconds
#
# Revision: 0
# Processed by: cddbd v1.5.1PL0 Copyright (c) Steve Scherf et al.
# Submitted via: CDex 1.51
#
DISCID=e70abf11
DTITLE=Martha and The Vandellas - Dancing in The Street
DYEAR=1994
DGENRE=Soul
TTITLE0=Heat Wave (Love is Like A)
TTITLE1=Come and Get These Memories
TTITLE2=A Love Like Yours (Don't Come Knocking Every Day)
TTITLE3=Quicksand
TTITLE4=Live Wire
TTITLE5=In My Lonely Room
TTITLE6=Dancig in The Street
TTITLE7=Wild One
TTITLE8=Nowhere to Run
TTITLE9=Love (Make me Do Foolish Things)
TTITLE10=You've Been in Love too Long
TTITLE11=My Baby Loves Me
TTITLE12=Jimy Mack
TTITLE13=Honey Chile
TTITLE14=I'm Ready for Love
TTITLE15=Love Bug Leave My Heart Alone
TTITLE16=Third Finger, Left Hand
EXTD=YEAR: 1994
EXTT0=
EXTT1=
EXTT2=
EXTT3=
EXTT4=
EXTT5=
EXTT6=
EXTT7=
EXTT8=
EXTT9=
EXTT10=
EXTT11=
EXTT12=
EXTT13=
EXTT14=
EXTT15=
EXTT16=
PLAYORDER=
